Coordinates
version=1
nRows=19
nColumns=24
inDegrees=yes

Units are S.I. units (second, meters, Newtons, ...)
Angles are in degrees.

endheader
time	pelvis_tilt	pelvis_list	pelvis_rotation	pelvis_tx	pelvis_ty	pelvis_tz	hip_flexion_r	hip_adduction_r	hip_rotation_r	knee_angle_r	ankle_angle_r	subtalar_angle_r	mtp_angle_r	hip_flexion_l	hip_adduction_l	hip_rotation_l	knee_angle_l	ankle_angle_l	subtalar_angle_l	mtp_angle_l	lumbar_extension	lumbar_bending	lumbar_rotation
      4.49500000	     -9.48556384	     -0.91591086	     10.63997543	     -1.12589727	     -0.04628731	      0.56440229	     36.34286288	     -5.27767857	    -21.39205125	    -10.91439506	     -1.74687513	      7.51535266	      2.46162582	     -8.11678210	      0.83453119	      9.26540956	    -10.03493867	     16.30183071	     15.35315113	     -0.26913920	      6.66451216	     -1.23706516	    -12.38632963
      4.50000000	     -9.51949338	     -1.18444609	     10.81842181	     -1.11876131	     -0.04742647	      0.56438142	     36.42879682	     -5.12192235	    -21.71349327	    -11.54047755	     -2.31497226	      6.91620863	      2.32748961	     -8.23658386	      0.43264380	      9.24763109	    -10.54771679	     16.42223545	     15.78697732	     -0.13746472	      6.83136348	     -0.92183854	    -12.54368473
      4.50500000	     -9.44174121	     -1.44940027	     10.87696528	     -1.11167086	     -0.04844439	      0.56459268	     36.41466524	     -4.86037095	    -21.71324561	    -12.17028025	     -3.10538268	      5.97397994	      2.41120234	     -8.39023718	     -0.00105748	      8.60916336	    -11.22244020	     16.61745927	     16.86395194	      0.06773101	      6.85952118	     -0.56851670	    -12.56918398
      4.51000000	     -9.44088521	     -1.75654523	     10.97858525	     -1.10453418	     -0.04945539	      0.56470936	     36.50115226	     -4.63147816	    -21.78923379	    -12.87739813	     -3.98848211	      5.11504667	      2.59710781	     -8.45548006	     -0.45910753	      8.23328023	    -11.88635733	     16.71870926	     17.64391407	      0.27783910	      6.99171513	     -0.18999261	    -12.63157381
      4.51500000	     -9.43060830	     -2.09353724	     11.05576431	     -1.09739265	     -0.05037546	      0.56485253	     36.59931422	     -4.37257833	    -21.79813782	    -13.63491033	     -4.95679644	      4.22735553	      2.77703798	     -8.49939649	     -0.94920475	      7.82472723	    -12.59391837	     16.76387528	     18.41561483	      0.50958511	      7.11919709	      0.23379848	    -12.66607418
      4.52000000	     -9.42043996	     -2.46096593	     11.11402353	     -1.09024916	     -0.05120575	      0.56501356	     36.72251406	     -4.08725332	    -21.73698572	    -14.44994932	     -5.95763344	      3.30786812	      2.90055481	     -8.50124010	     -1.47176273	      7.37588193	    -13.36301778	     16.75114192	     19.20357435	      0.78237872	      7.25347514	      0.69160685	    -12.68725985
      4.52500000	     -9.40033916	     -2.84575959	     11.13202286	     -1.08311658	     -0.05196176	      0.56523173	     36.86768603	     -3.76817548	    -21.57833582	    -15.33112000	     -6.92546037	      2.34421658	      2.97714648	     -8.47114215	     -2.01778022	      6.84667899	    -14.20168019	     16.68972901	     20.07434699	      1.14451320	      7.37829178	      1.18020025	    -12.61051807
      4.53000000	     -9.37801973	     -3.24394291	     11.13536258	     -1.07598670	     -0.05261642	      0.56545759	     37.03522947	     -3.43436062	    -21.35383504	    -16.28089281	     -7.81476087	      1.35897957	      2.93732337	     -8.39844265	     -2.58034975	      6.27227212	    -15.10943628	     16.53002437	     20.95350545	      1.58575247	      7.50266467	      1.69021962	    -12.54557442
      4.53500000	     -9.35768425	     -3.65532101	     11.13169546	     -1.06886999	     -0.05316672	      0.56567039	     37.21870932	     -3.08535001	    -21.06762162	    -17.27735057	     -8.60434168	      0.37067347	      2.76523755	     -8.27217837	     -3.15863519	      5.67302396	    -16.09777105	     16.26567555	     21.83644579	      2.09203780	      7.63449862	      2.21857318	    -12.50636465
      4.54000000	     -9.32585629	     -4.06264683	     11.07679205	     -1.06174301	     -0.05366982	      0.56596596	     37.41554211	     -2.69863506	    -20.69086598	    -18.33872425	     -9.21749886	     -0.63653347	      2.49616936	     -8.11244728	     -3.74741545	      4.95849586	    -17.17183866	     15.91368445	     22.84077630	      2.79343352	      7.74849833	      2.75246824	    -12.35112499
      4.54500000	     -9.30352796	     -4.48294143	     11.04768303	     -1.05461775	     -0.05406963	      0.56622644	     37.60822769	     -2.30306361	    -20.29991463	    -19.39841187	     -9.68042716	     -1.63443770	      2.14355043	     -7.87253775	     -4.35818667	      4.27684880	    -18.35376960	     15.41523514	     23.81572658	      3.57311434	      7.88359022	      3.29203159	    -12.23780381
      4.55000000	     -9.22725728	     -4.82777244	     10.96390352	     -1.04760685	     -0.05436418	      0.56659801	     37.76326602	     -1.91749748	    -19.80018325	    -20.51461967	     -9.96129426	     -2.56145475	      1.67283546	     -7.66290763	     -4.91949482	      3.49580993	    -19.56928923	     14.70878653	     24.89716376	      4.89257348	      7.91259079	      3.77076046	    -12.04138605
      4.55500000	     -9.23789485	     -5.26757634	     10.92029029	     -1.04048286	     -0.05464355	      0.56686920	     37.96424165	     -1.46572648	    -19.38656811	    -21.53932691	    -10.17263619	     -3.51804871	      1.33047679	     -7.26766470	     -5.57281846	      2.80344528	    -20.95248598	     13.96443070	     25.92101112	      5.76666803	      8.08892089	      4.32736132	    -11.97212286
      4.56000000	     -9.12612455	     -5.58136350	     10.79583244	     -1.03349010	     -0.05471980	      0.56732763	     38.02505094	     -1.01764186	    -18.81511645	    -22.56235565	    -10.21963885	     -4.42006818	      0.86616884	     -7.00843539	     -6.14076947	      1.99421359	    -22.28609522	     12.80466245	     26.94261496	      7.73086752	      8.06384370	      4.78115608	    -11.71756331
      4.56500000	     -9.14468509	     -5.98774471	     10.73555693	     -1.02640116	     -0.05487356	      0.56766740	     38.17479393	     -0.54646921	    -18.44300590	    -23.48798196	    -10.20145809	     -5.26321747	      0.67714562	     -6.48655449	     -6.80696682	      1.25837055	    -23.86374102	     11.71041129	     28.04448513	      8.74762342	      8.23476832	      5.29333665	    -11.63093440
      4.57000000	     -9.04318645	     -6.28716989	     10.62260179	     -1.01949389	     -0.05481353	      0.56819843	     38.15646701	     -0.05544269	    -17.87192895	    -24.33003343	    -10.11407664	     -6.18769917	      0.45704567	     -6.09262808	     -7.39852509	      0.55681975	    -25.36654564	     10.17987741	     28.98861254	     10.94139734	      8.20267472	      5.71595277	    -11.40948535
      4.57500000	     -9.02554833	     -6.61717762	     10.54542466	     -1.01256215	     -0.05473891	      0.56867541	     38.17223514	      0.42607895	    -17.46326195	    -25.07085773	     -9.99785744	     -6.97573253	      0.39383622	     -5.51543587	     -8.03335363	     -0.09519827	    -27.03333499	      8.56581619	     29.97187915	     12.46880390	      8.28655021	      6.14191199	    -11.27595432
      4.58000000	     -8.99256540	     -6.92446696	     10.47330445	     -1.00569562	     -0.05461272	      0.56918056	     38.12337427	      0.90808779	    -17.07709574	    -25.72412035	     -9.78356197	     -7.71922475	      0.41674689	     -4.90348753	     -8.66107328	     -0.67767922	    -28.74523822	      6.76143681	     30.81529696	     14.15768301	      8.33406605	      6.54195686	    -11.13853669
      4.58500000	     -8.95801584	     -7.20530291	     10.41171391	     -0.99893377	     -0.05442784	      0.56971327	     38.03063761	      1.36995963	    -16.74298489	    -26.30146204	     -9.50677305	     -8.36662688	      0.51166766	     -4.22744477	     -9.27122713	     -1.17247155	    -30.52693884	      4.80286096	     31.51651204	     15.74493361	      8.36427886	      6.90617973	    -10.99814898
